<?xml version="1.0" encoding="UTF-8"?><svg xmlns="http://www.w3.org/2000/svg" viewBox="0 0 269.69 89.58"><g id="a"/><g id="b"><g id="c"><path d="M19.75,38.6L33.11,5.56l9.24,21.91c-6.62-1.48-15.66,1.38-22.59,11.13h0Zm46.8,22.22c-4.24,0-5.56-1.71-12.18-17.42l-1.95-4.64-2.72-6.51L36.29,.27c-.09-.18-.27-.27-.8-.27h-.7c-.44,0-.53,.09-.62,.27L16.17,44.38c-1.95,4.86-4,8.94-5.83,12.09-2.1,3.63-3.27,4.36-9.98,4.39h-.36v.55H26.34v-.55c-.36,0-6.02,.03-6.99,.03-3.6,0-5.1-1.34-5.35-3.77,0,0-.08-.75,0-1.33,0-.02,.01-.05,.01-.06,.31-2.95,1.62-6.97,3.22-10.9l.3-.73c10.41-20.05,24.4-16.93,28.53-7.83l1.01,2.38,.35,.88,1.68,3.88c1.17,2.76,2.12,5.08,2.86,7.04,3.46,9.09,2.52,10.41-.67,10.41h-6.99v.55h25.18v-.57h-2.91Z" fill="#fff"/><path d="M92.51,.95c.35,0,6.02,.01,6.72,.01,3.71,0,5.65,1.5,5.65,4.5,0,2.65-1.5,7.06-2.65,10.15l-14.91,39.18c-.18,.35-.26,.53-.44,.53s-.26-.18-.44-.53l-15.18-38.38c-5.65-14.38-5.74-15.35-1.5-15.35h6l.02-.79h-26.24v.79h5.05c4.41,0,5.74,.89,11.29,15l18.09,45.35c.09,.18,.26,.26,.79,.26h.53c.44,0,.53-.09,.62-.26L103.47,15.35c1.32-3.35,3.09-7.06,4.5-9.79,1.59-3.18,3.35-4.5,6.27-4.5h4.61V.26h-26.3l-.03,.69Z" fill="#fff"/><path d="M116.76,38.6l13.35-33.04,9.24,21.91c-6.62-1.48-15.66,1.38-22.59,11.13h0Zm46.8,22.22c-4.24,0-5.56-1.71-12.18-17.42l-1.95-4.64-2.72-6.51L133.29,.27c-.09-.18-.27-.27-.8-.27h-.7c-.44,0-.53,.09-.62,.27l-18,44.11c-1.95,4.86-4,8.94-5.83,12.09-2.1,3.63-3.27,4.36-9.98,4.39h-.36v.55h26.34v-.55c-.36,0-6.02,.03-6.99,.03-3.6,0-5.1-1.34-5.35-3.77,0,0-.08-.75,0-1.33,0-.02,.01-.05,.01-.06,.31-2.95,1.62-6.97,3.22-10.9l.3-.73c10.41-20.05,24.4-16.93,28.53-7.83l1.01,2.38,.35,.88,1.68,3.88c1.17,2.76,2.12,5.08,2.86,7.04,3.46,9.09,2.52,10.41-.67,10.41h-6.99v.55h25.18v-.57h-2.91Z" fill="#fff"/><path d="M188.98,.98c.44,0,3.71,0,5.04,0,7.15,0,4.94,7.41,2.38,11.74l-11.03,19.15-9.97-17.29c-6.35-11.03-7.06-13.5-1.24-13.5h5.93V.24l-28.01,.02v.8h5.05c4.94,0,6.88,2.64,12.88,13.05l11.12,19.24v11.38c0,15.53-.44,15.88-4.77,15.88h-5.84v.79c2.47,0,11.89-.01,13.12-.01,1.32,0,10.47,.01,12.94,.01v-.79h-5.84c-4.32,0-4.76-.35-4.76-15.88v-11.82l11.38-19.94c3.09-5.29,7.68-11.91,12.71-11.91l4.61-.03V.26h-25.67l-.03,.71Z" fill="#fff"/><path d="M219.97,38.6l13.35-33.04,9.24,21.91c-6.62-1.48-15.66,1.38-22.59,11.13h0Zm46.8,22.22c-4.24,0-5.56-1.71-12.18-17.42l-1.95-4.64-2.72-6.51L236.51,.27c-.09-.18-.27-.27-.8-.27h-.7c-.44,0-.53,.09-.62,.27l-18,44.11c-1.95,4.86-4,8.94-5.83,12.09-2.1,3.63-3.27,4.36-9.98,4.39h-.36v.55h26.34v-.55c-.36,0-6.02,.03-6.99,.03-3.6,0-5.1-1.34-5.35-3.77,0,0-.08-.75,0-1.33,0-.02,.01-.05,.01-.06,.31-2.95,1.62-6.97,3.22-10.9l.3-.73c10.41-20.05,24.4-16.93,28.53-7.83l1.01,2.38,.35,.88,1.68,3.88c1.17,2.76,2.12,5.08,2.86,7.04,3.46,9.09,2.52,10.41-.67,10.41h-6.99v.55h25.18v-.57h-2.91Z" fill="#fff"/><g><path d="M27.33,77.51h-1.44v8.96c0,1.02-.31,1.75-1.34,1.75-.42,0-.85-.17-1.12-.37l-.49,1.11c.31,.31,1,.63,1.8,.63,1.84,0,2.6-1.09,2.6-2.87v-9.2Z" fill="#fff" opacity=".71"/><polygon points="56.4 89.41 63.29 89.41 63.29 88.05 57.85 88.05 57.85 84.07 62.61 84.07 62.61 82.71 57.85 82.71 57.85 78.87 63.12 78.87 63.12 77.51 56.4 77.51 56.4 89.41" fill="#fff" opacity=".71"/><polygon points="106.21 77.51 104.8 77.51 102.1 86.98 98.94 77.51 97.54 77.51 94.47 86.98 91.7 77.51 90.06 77.51 93.67 89.41 94.99 89.41 98.19 79.84 101.45 89.41 102.78 89.41 106.21 77.51" fill="#fff" opacity=".71"/><polygon points="133.67 89.41 140.55 89.41 140.55 88.05 135.11 88.05 135.11 84.07 139.87 84.07 139.87 82.71 135.11 82.71 135.11 78.87 140.38 78.87 140.38 77.51 133.67 77.51 133.67 89.41" fill="#fff" opacity=".71"/><polygon points="168.94 89.41 176.25 89.41 176.25 88.05 170.39 88.05 170.39 77.51 168.94 77.51 168.94 89.41" fill="#fff" opacity=".71"/><path d="M206.9,78.84c2.11,0,2.79,.97,2.79,2.19,0,1.41-1.33,2.26-2.7,2.26h-1.75v-4.42c.56-.02,1.29-.03,1.67-.03Zm-1.67,10.57v-4.76h1.94l3.65,4.76h1.77l-3.96-5.03c1.31-.34,2.58-1.51,2.58-3.37s-.99-3.54-4.23-3.54c-.34,0-2.53,.03-3.2,.03v11.9h1.44Z" fill="#fff" opacity=".71"/><polygon points="247.82 77.51 246.24 77.51 242.89 82.95 239.56 77.51 237.9 77.51 242.11 84.31 242.11 89.41 243.56 89.41 243.56 84.31 247.82 77.51" fill="#fff" opacity=".71"/></g></g></g></svg>